<svg width="14" height="8" viewBox="0 0 14 8" xmlns="http://www.w3.org/2000/svg">
<path fill-rule="evenodd" clip-rule="evenodd" d="M11.9702 0.969975C12.1101 0.831247 12.299 0.753171 12.4961 0.752627C12.6931 0.752084 12.8825 0.829116 13.0232 0.96707C13.1639 1.10502 13.2447 1.29282 13.248 1.48984C13.2514 1.68687 13.1771 1.87731 13.0412 2.01998L9.04916 7.00998C8.98055 7.08387 8.89774 7.14318 8.80569 7.18434C8.71364 7.22551 8.61423 7.24768 8.51341 7.24955C8.41259 7.25142 8.31243 7.23294 8.21891 7.19521C8.1254 7.15748 8.04046 7.10128 7.96916 7.02997L5.32416 4.38398C5.25047 4.31531 5.19137 4.23251 5.15038 4.14051C5.10938 4.04851 5.08734 3.9492 5.08557 3.8485C5.08379 3.7478 5.10231 3.64777 5.14004 3.55438C5.17776 3.46099 5.2339 3.37616 5.30512 3.30494C5.37634 3.23372 5.46117 3.17757 5.55456 3.13985C5.64795 3.10213 5.74798 3.08361 5.84868 3.08538C5.94938 3.08716 6.0487 3.1092 6.1407 3.15019C6.2327 3.19119 6.3155 3.25029 6.38416 3.32398L8.47816 5.41698L11.9512 0.991975C11.9574 0.984229 11.964 0.976881 11.9712 0.969975H11.9702Z" />
</svg>
