<svg width="14" height="8" viewBox="0 0 14 8" xmlns="http://www.w3.org/2000/svg">
<path fill-rule="evenodd" clip-rule="evenodd" d="M7.97016 0.969982C8.11011 0.831254 8.29903 0.753178 8.49609 0.752634C8.69315 0.752091 8.8825 0.829123 9.02321 0.967077C9.16392 1.10503 9.24469 1.29282 9.24805 1.48985C9.25141 1.68688 9.17709 1.87731 9.04116 2.01998L5.04916 7.00998C4.98055 7.08388 4.89774 7.14318 4.80569 7.18435C4.71364 7.22551 4.61423 7.24769 4.51341 7.24956C4.41259 7.25143 4.31243 7.23294 4.21891 7.19521C4.1254 7.15749 4.04046 7.10129 3.96916 7.02998L1.32416 4.38398C1.25047 4.31532 1.19137 4.23252 1.15038 4.14052C1.10938 4.04852 1.08734 3.94921 1.08557 3.8485C1.08379 3.7478 1.10231 3.64777 1.14003 3.55438C1.17776 3.461 1.2339 3.37616 1.30512 3.30494C1.37634 3.23373 1.46117 3.17758 1.55456 3.13986C1.64795 3.10214 1.74798 3.08361 1.84868 3.08539C1.94938 3.08717 2.0487 3.10921 2.1407 3.1502C2.2327 3.19119 2.3155 3.2503 2.38416 3.32398L4.47816 5.41698L7.95016 0.991982C7.95639 0.984262 7.96306 0.976915 7.97016 0.969982ZM7.05016 6.10998L7.97016 7.02998C8.04144 7.10113 8.12632 7.1572 8.21974 7.19484C8.31316 7.23247 8.4132 7.25091 8.5139 7.24904C8.6146 7.24717 8.71389 7.22504 8.80585 7.18397C8.89781 7.1429 8.98056 7.08373 9.04916 7.00998L13.0412 2.01998C13.1129 1.94918 13.1696 1.86466 13.2079 1.77146C13.2462 1.67826 13.2654 1.57829 13.2642 1.47752C13.263 1.37676 13.2415 1.27726 13.2011 1.18498C13.1606 1.0927 13.1019 1.00952 13.0286 0.940411C12.9552 0.871304 12.8687 0.817686 12.7742 0.782758C12.6797 0.74783 12.5791 0.73231 12.4784 0.737123C12.3778 0.741937 12.2791 0.766986 12.1883 0.810774C12.0976 0.854562 12.0166 0.916192 11.9502 0.991982L8.47716 5.41698L7.99216 4.93098L7.04916 6.10998H7.05016Z"/>
</svg>
