<svg width="24" height="24" viewBox="0 0 24 24" xmlns="http://www.w3.org/2000/svg">
<path fill-rule="evenodd" clip-rule="evenodd" d="M20.5573 9.93697C20.8515 10.2376 20.8513 10.7247 20.5567 11.0249L11.9867 19.7629C10.5561 21.2215 8.93809 22 7.40345 22C7.01172 22 6.62515 21.9492 6.24892 21.8459C4.73667 21.4317 3.58472 20.2334 3.16779 18.6411C2.64813 16.6574 3.34848 14.5022 5.089 12.7277L14.6388 2.99062C16.1894 1.40997 18.3477 1.90755 19.591 3.17809C21.282 4.906 20.817 6.95215 19.6696 8.12225L10.0384 17.9416C8.76171 19.2429 7.33368 19.1473 6.58294 18.38C5.84017 17.6211 5.75553 16.1728 7.03045 14.8728L13.5446 8.23104C13.8394 7.93082 14.3167 7.93104 14.6108 8.2317C14.905 8.53236 14.9048 9.01961 14.6102 9.31983L8.09604 15.9613C7.52728 16.5413 7.44157 17.08 7.64961 17.2925C7.8654 17.5134 8.40271 17.4339 8.97277 16.8528L18.604 7.03324C19.5753 6.04314 19.1682 4.92358 18.5243 4.26578C17.802 3.52776 16.6115 3.1548 15.7044 4.07941L6.15438 13.8165C4.80537 15.1919 4.2476 16.8055 4.62426 18.2435C4.90056 19.2985 5.65388 20.0895 6.63979 20.3598C7.97523 20.7257 9.49587 20.1273 10.9211 18.6741L19.4911 9.93631C19.7857 9.63609 20.2631 9.63631 20.5573 9.93697Z" fill=""/>
</svg>
