<svg width="14" height="10" viewBox="0 0 14 10" xmlns="http://www.w3.org/2000/svg">
<path d="M13.7194 0.279313C13.5417 0.100415 13.3012 0 13.0506 0C12.8 0 12.5596 0.100415 12.3818 0.279313L4.97628 7.67957L1.61816 4.27931C1.44042 4.10041 1.19999 4 0.94938 4C0.698767 4 0.458337 4.10041 0.280601 4.27931C0.191688 4.36861 0.121116 4.47484 0.0729554 4.59189C0.0247951 4.70894 0 4.83448 0 4.96129C0 5.08809 0.0247951 5.21363 0.0729554 5.33068C0.121116 5.44773 0.191688 5.55396 0.280601 5.64326L4.30276 9.71588C4.39095 9.80591 4.49587 9.87736 4.61147 9.92613C4.72706 9.97489 4.85105 10 4.97628 10C5.10151 10 5.2255 9.97489 5.3411 9.92613C5.4567 9.87736 5.56162 9.80591 5.64981 9.71588L13.7194 1.64326C13.8083 1.55396 13.8789 1.44773 13.927 1.33068C13.9752 1.21363 14 1.08809 14 0.961285C14 0.834485 13.9752 0.708939 13.927 0.59189C13.8789 0.474841 13.8083 0.368606 13.7194 0.279313Z" />
</svg>
